<?xml version="1.0" standalone="no"?>
<!DOCTYPE svg PUBLIC "-//W3C//DTD SVG 20010904//EN"
 "http://www.w3.org/TR/2001/REC-SVG-20010904/DTD/svg10.dtd">
<svg version="1.0" xmlns="http://www.w3.org/2000/svg"
 width="900.000000pt" height="840.000000pt" viewBox="0 0 900.000000 840.000000"
 preserveAspectRatio="xMidYMid meet">

<g transform="translate(0.000000,840.000000) scale(0.100000,-0.100000)"
fill="#000000" stroke="none">
<path d="M4348 7847 l-3 -322 -27 -57 c-37 -80 -107 -152 -187 -191 l-66 -32
-850 -5 c-817 -6 -853 -7 -920 -26 -206 -60 -365 -194 -450 -379 -46 -99 -59
-164 -59 -290 -1 -162 36 -272 135 -406 76 -104 185 -184 319 -235 l75 -29
2145 -5 c1526 -4 2154 -8 2175 -16 114 -42 214 -128 254 -218 87 -198 3 -420
-196 -518 l-68 -33 -860 -5 -860 -5 -80 -27 c-166 -56 -317 -187 -394 -341
-66 -133 -72 -167 -78 -475 l-6 -272 -586 2 -585 3 -11 36 c-16 56 -42 87 -82
99 -27 8 -216 10 -648 7 -568 -4 -618 -5 -721 -25 -237 -45 -544 -169 -585
-236 -13 -21 -19 -50 -19 -89 0 -42 -5 -61 -17 -71 -10 -8 -59 -45 -110 -83
-381 -283 -622 -662 -713 -1119 -28 -139 -38 -402 -20 -553 77 -660 521 -1235
1145 -1481 111 -44 320 -96 446 -110 152 -18 424 -8 563 19 227 46 473 148
668 277 55 36 114 71 131 77 24 9 352 12 1297 12 1088 0 1270 -2 1300 -15 19
-8 82 -45 140 -83 297 -193 592 -285 946 -294 246 -7 401 14 619 84 599 193
1053 684 1204 1301 99 404 53 833 -129 1208 -139 286 -330 510 -597 700 l-93
66 0 64 c0 57 -3 67 -32 99 -65 75 -345 184 -583 228 -115 21 -144 22 -742 22
-614 0 -622 0 -650 -21 -17 -12 -35 -40 -45 -70 l-16 -49 -587 -3 -586 -2 3
267 c3 267 3 268 30 325 15 32 39 73 55 93 33 42 129 109 181 127 28 9 250 14
892 18 l855 5 84 29 c215 75 374 243 442 466 29 94 31 251 6 350 -51 194 -183
357 -362 445 -154 76 58 69 -2330 75 l-2140 5 -57 27 c-115 54 -204 168 -228
293 -31 164 60 340 218 417 l67 33 855 5 c778 5 860 7 915 23 179 53 333 172
422 329 37 63 72 173 83 260 6 47 10 197 8 348 l-3 265 -147 2 -147 3 -3 -323z
m25 -519 c-35 -64 -113 -145 -175 -181 -99 -57 -91 -57 -958 -57 -899 -1 -895
0 -1037 -71 -100 -49 -211 -151 -262 -240 -42 -74 -39 -43 4 41 89 168 244
278 436 309 40 7 359 11 864 11 861 0 834 -1 941 53 64 32 144 105 181 162 37
60 42 39 6 -27z m-2111 -1222 c29 -13 77 -28 106 -35 38 -8 626 -11 2141 -11
2032 0 2090 -1 2163 -19 102 -26 162 -58 248 -132 81 -70 88 -92 10 -30 -67
53 -180 106 -255 120 -41 8 -680 11 -2146 11 -1508 0 -2103 3 -2141 11 -92 20
-205 88 -245 148 -15 23 -13 23 25 -7 22 -18 64 -43 94 -56z m4694 -908 c-19
-43 -82 -128 -121 -161 -17 -13 -52 -37 -78 -51 -97 -55 -113 -56 -987 -56
-895 0 -857 3 -1000 -68 -85 -42 -191 -136 -241 -213 -43 -68 -48 -54 -8 23
41 77 153 192 229 235 30 18 89 41 130 52 73 20 97 21 865 21 455 0 818 4 857
10 129 19 254 95 324 196 42 60 52 64 30 12z m-3894 -1198 c0 -5 1 -15 2 -21
1 -7 -144 -10 -469 -9 -513 0 -704 -8 -870 -41 -131 -25 -308 -82 -429 -138
-49 -22 -91 -41 -93 -41 -2 0 -3 10 -1 23 8 59 339 183 588 221 116 17 1269
23 1272 6z m4238 -22 c153 -35 234 -61 358 -115 95 -42 149 -83 137 -104 -3
-4 -44 10 -90 31 -113 52 -210 86 -325 115 -213 54 -254 57 -872 62 -577 5
-601 7 -571 37 4 4 287 5 628 3 l620 -3 115 -26z m-95 -135 c61 -11 145 -30
188 -42 618 -174 1101 -682 1226 -1291 91 -440 22 -864 -202 -1242 -63 -107
-156 -230 -168 -223 -5 4 -8 3 -7 -2 5 -14 -45 -73 -55 -66 -6 3 -7 1 -4 -4 7
-12 -76 -93 -181 -176 -181 -144 -414 -259 -640 -316 -296 -75 -646 -65 -943
28 -88 28 -262 104 -310 136 -21 14 -41 25 -44 25 -7 0 -128 80 -135 90 -10
12 -100 50 -142 60 -27 6 -503 10 -1288 10 -1091 0 -1253 -2 -1305 -15 -60
-16 -90 -31 -187 -97 -407 -274 -925 -357 -1408 -227 -345 93 -694 326 -908
606 -348 458 -448 1050 -267 1590 217 649 827 1121 1515 1173 58 4 1241 7
2630 6 2502 -2 2526 -3 2635 -23z"/>
<path d="M6793 3679 c-685 -66 -1242 -581 -1369 -1264 -26 -139 -26 -402 0
-540 114 -615 584 -1105 1185 -1235 417 -91 837 -11 1195 227 138 91 330 283
419 418 153 233 239 485 256 755 22 353 -65 678 -260 971 -87 130 -282 324
-414 412 -306 202 -655 291 -1012 256z m458 -87 c315 -74 554 -210 773 -444
189 -200 317 -450 373 -725 14 -67 18 -135 18 -283 -1 -177 -3 -206 -29 -313
-70 -300 -206 -540 -427 -751 -202 -194 -441 -320 -729 -382 -120 -27 -459
-27 -577 -1 -232 51 -420 137 -608 278 -395 296 -621 802 -576 1292 53 575
400 1041 940 1261 67 27 235 71 329 86 99 15 415 4 513 -18z"/>
<path d="M6600 3501 c-147 -40 -362 -136 -434 -194 -25 -20 -27 -26 -17 -45 6
-12 16 -22 22 -22 6 0 44 21 86 46 109 66 267 130 384 155 27 6 56 18 65 26
13 14 13 17 -2 34 -20 22 -20 22 -104 0z"/>
<path d="M6023 3198 c-59 -50 -126 -119 -158 -161 l-28 -38 20 -20 20 -21 112
112 c61 62 111 118 111 124 0 13 -20 36 -32 36 -4 0 -24 -15 -45 -32z"/>
<path d="M6862 3195 c-35 -8 -82 -25 -105 -38 -75 -41 -930 -733 -959 -775
-55 -80 -72 -138 -72 -252 -1 -98 1 -110 31 -173 106 -222 367 -315 581 -204
54 27 566 427 856 667 135 112 186 211 186 358 0 215 -148 387 -363 422 -75
12 -76 12 -155 -5z m216 -76 c72 -24 158 -96 196 -163 67 -116 56 -292 -24
-393 -11 -14 -52 -53 -92 -87 -98 -83 -706 -568 -743 -592 -16 -10 -38 -27
-48 -37 -11 -11 -44 -31 -75 -45 -48 -22 -72 -26 -152 -26 -86 -1 -101 2 -153
28 -71 36 -140 108 -175 184 -22 47 -27 71 -27 142 0 74 4 93 31 150 17 36 44
79 60 96 30 31 848 686 895 716 77 49 208 61 307 27z"/>
<path d="M6860 3081 c-94 -31 -164 -92 -207 -179 -22 -45 -27 -69 -27 -131 0
-121 52 -212 159 -280 94 -60 205 -62 315 -7 26 13 52 21 56 18 4 -4 4 -2 1 4
-3 6 7 24 24 40 40 38 64 85 79 158 22 105 -8 207 -83 284 -64 66 -127 95
-217 98 -41 2 -86 0 -100 -5z m180 -112 c25 -12 39 -23 32 -26 -7 -3 -19 1
-27 7 -43 36 -214 -10 -207 -55 2 -17 1 -17 -8 -5 -11 16 -10 17 -50 -46 -21
-32 -25 -51 -25 -111 0 -75 -5 -80 -24 -24 -23 69 -6 140 48 202 65 77 170
100 261 58z m104 -115 c9 -24 2 -26 -12 -4 -7 11 -8 20 -3 20 5 0 12 -7 15
-16z"/>
<path d="M7202 2553 c-17 -7 -36 -43 -22 -43 5 0 10 5 10 11 0 7 8 18 18 25
18 14 16 16 -6 7z"/>
<path d="M6102 2460 c-200 -42 -312 -261 -228 -445 54 -118 171 -195 296 -195
62 0 148 26 180 55 10 9 24 15 32 14 7 -1 20 -1 28 0 13 1 13 2 0 11 -13 9
-13 12 1 23 24 19 58 97 70 162 18 98 -10 200 -76 273 -73 81 -199 124 -303
102z m124 -101 c54 -14 129 -85 145 -139 25 -82 -36 -185 -140 -237 -118 -60
-192 -43 -259 61 -54 84 -25 217 59 277 65 46 120 57 195 38z"/>
<path d="M5767 2898 c-14 -18 -39 -59 -57 -91 -31 -55 -32 -59 -15 -77 25 -27
40 -16 81 58 21 37 44 77 51 88 12 19 12 24 -2 38 -23 23 -31 20 -58 -16z"/>
<path d="M5653 2673 c-18 -7 -16 -38 2 -53 23 -19 47 -4 43 27 -3 27 -20 37
-45 26z"/>
<path d="M7695 2583 c-60 -8 -141 -35 -179 -60 -63 -41 -875 -692 -907 -727
-183 -202 -121 -538 121 -660 132 -66 257 -68 385 -7 37 18 188 132 398 300
186 149 365 292 398 317 168 129 225 209 249 345 29 164 -57 344 -208 436 -63
39 -185 66 -257 56z m198 -97 c123 -60 197 -170 205 -306 7 -120 -32 -217
-115 -287 -21 -17 -69 -58 -108 -90 -88 -74 -597 -480 -655 -522 -23 -17 -47
-28 -51 -25 -5 3 -8 0 -7 -7 5 -20 -98 -77 -161 -90 -250 -52 -476 164 -431
413 13 72 37 123 83 175 34 40 847 692 904 725 95 57 238 62 336 14z"/>
<path d="M7647 2460 c-90 -23 -167 -87 -209 -175 -65 -138 -21 -309 102 -400
68 -50 155 -72 235 -58 35 6 78 18 96 27 38 19 42 20 33 5 -4 -7 11 -2 34 11
23 13 39 27 36 31 -2 5 -14 -1 -24 -11 -11 -11 -26 -20 -32 -20 -7 1 5 16 27
35 23 20 46 32 55 29 11 -4 12 -2 3 7 -14 14 -6 42 10 32 6 -3 7 -1 3 6 -4 6
-3 17 2 24 17 21 35 129 29 178 -13 109 -91 216 -189 259 -55 24 -156 33 -211
20z m176 -111 c15 -7 27 -16 27 -21 0 -5 -9 -4 -19 2 -28 14 -126 12 -164 -3
-78 -33 -146 -128 -148 -207 0 -33 -1 -34 -10 -10 -12 30 -3 93 22 142 21 42
73 87 121 105 39 15 131 11 171 -8z"/>
<path d="M7975 1920 c-3 -5 -1 -10 4 -10 6 0 11 5 11 10 0 6 -2 10 -4 10 -3 0
-8 -4 -11 -10z"/>
<path d="M6836 1825 c-86 -33 -169 -121 -196 -209 -21 -65 -9 -183 25 -244 79
-145 246 -210 397 -153 31 12 67 30 81 41 13 11 28 16 31 12 4 -4 6 0 4 8 -2
8 3 14 10 12 8 -1 11 1 9 6 -3 4 4 19 15 32 11 14 16 19 12 11 -5 -10 -3 -12
5 -7 7 5 10 14 7 22 -3 7 -1 16 3 19 16 9 34 135 27 188 -14 106 -79 197 -178
248 -55 29 -193 36 -252 14z m214 -105 c77 -40 127 -130 116 -213 -20 -147
-144 -232 -281 -192 -102 29 -154 100 -155 208 0 69 19 116 68 163 65 63 169
77 252 34z"/>
<path d="M8229 1813 c-14 -38 -7 -58 22 -61 22 -3 29 2 38 29 8 24 8 36 0 45
-19 23 -49 16 -60 -13z"/>
<path d="M8204 1692 c-18 -11 -86 -168 -82 -188 2 -11 13 -20 26 -22 20 -3 28
8 62 81 43 92 46 107 28 125 -14 14 -19 14 -34 4z"/>
<path d="M8053 1415 c-97 -137 -194 -241 -305 -326 -78 -60 -97 -92 -62 -106
45 -17 250 163 375 330 33 43 59 83 59 87 0 11 -29 40 -40 40 -5 0 -17 -11
-27 -25z"/>
<path d="M7425 908 c-38 -16 -117 -41 -175 -56 -97 -25 -120 -27 -310 -27
-220 0 -303 13 -459 72 -49 18 -66 21 -77 12 -37 -30 -7 -55 111 -93 127 -41
221 -57 360 -63 207 -9 384 19 574 91 79 31 100 49 84 74 -15 25 -30 23 -108
-10z"/>
<path d="M1541 3631 c-126 -43 -151 -62 -117 -90 12 -10 34 -5 108 22 51 20
110 38 131 42 41 8 63 35 45 53 -19 19 -46 14 -167 -27z"/>
<path d="M2884 3605 c-15 -37 2 -46 83 -43 76 3 78 4 78 28 0 24 -2 25 -78 28
-62 2 -78 0 -83 -13z"/>
<path d="M3297 3562 c-22 -24 -21 -45 1 -65 17 -16 103 -17 1034 -17 971 0
1016 1 1031 18 22 24 21 45 -1 65 -17 16 -103 17 -1034 17 -971 0 -1016 -1
-1031 -18z"/>
<path d="M1255 3498 c-102 -54 -269 -189 -365 -297 -92 -103 -181 -231 -178
-255 5 -34 44 -33 62 1 68 133 309 374 476 478 63 39 73 57 42 74 -11 6 -25 6
-37 -1z"/>
<path d="M2770 3486 c0 -30 16 -36 90 -36 60 0 88 16 76 45 -4 12 -23 15 -86
15 -78 0 -80 -1 -80 -24z"/>
<path d="M2994 3495 c-12 -31 15 -45 87 -45 55 0 70 3 77 18 18 34 4 42 -79
42 -62 0 -81 -3 -85 -15z"/>
<path d="M2884 3395 c-15 -37 2 -46 83 -43 76 3 78 4 78 28 0 24 -2 25 -78 28
-62 2 -78 0 -83 -13z"/>
<path d="M3304 3355 c-4 -8 -1 -22 6 -30 11 -13 140 -15 1020 -15 880 0 1009
2 1020 15 7 8 10 22 6 30 -5 13 -124 15 -1026 15 -902 0 -1021 -2 -1026 -15z"/>
<path d="M1925 3159 c-287 -37 -558 -205 -719 -448 -346 -520 -148 -1226 418
-1492 381 -178 834 -103 1139 190 166 159 268 356 302 581 19 120 19 202 0
315 -74 454 -434 798 -895 855 -96 11 -146 11 -245 -1z m370 -84 c349 -89 623
-374 703 -729 21 -98 21 -319 -1 -408 -75 -306 -282 -555 -558 -675 -127 -55
-235 -76 -384 -76 -146 -1 -254 21 -380 75 -201 87 -379 256 -478 453 -181
364 -117 796 163 1089 93 98 171 154 291 210 204 96 426 117 644 61z"/>
<path d="M1830 2848 c-70 -48 -75 -63 -79 -238 l-3 -158 -158 -4 c-173 -3
-186 -7 -234 -72 -19 -25 -21 -44 -24 -224 -3 -193 -3 -198 20 -232 13 -19 39
-45 57 -57 32 -21 44 -23 187 -23 l152 0 4 -157 c3 -149 4 -160 28 -196 14
-20 44 -46 68 -58 39 -19 56 -21 220 -17 198 3 225 11 269 78 21 31 23 44 23
191 l0 158 163 3 c152 3 164 4 196 27 60 43 71 83 71 274 0 182 -7 213 -62
265 -37 34 -80 42 -230 42 l-138 0 0 154 c0 143 -2 155 -23 187 -12 18 -38 44
-56 56 -32 22 -43 23 -226 23 -183 0 -194 -1 -225 -22z m410 -93 c11 -13 -8
-15 -159 -15 -100 0 -180 -4 -192 -10 -18 -10 -19 -23 -19 -185 0 -107 -4
-184 -11 -199 l-11 -24 -189 -4 c-137 -2 -192 -7 -201 -16 -9 -9 -15 -62 -18
-175 l-6 -162 -2 174 c-2 150 0 177 15 193 14 16 34 18 198 18 127 0 185 4
193 12 8 8 12 64 12 188 0 143 3 180 16 198 15 21 21 22 188 22 142 0 176 -3
186 -15z m233 -405 c153 0 176 -2 190 -17 15 -17 6 -18 -171 -15 -103 2 -192
5 -199 7 -6 2 -17 13 -23 25 -11 20 -10 21 9 11 12 -7 89 -11 194 -11z m-603
-636 c0 -108 -3 -163 -10 -159 -6 4 -10 72 -10 171 0 108 3 163 10 159 6 -4
10 -72 10 -171z"/>
<path d="M628 2806 c-23 -49 -19 -76 12 -76 15 0 27 12 41 46 23 51 20 74 -11
74 -14 0 -27 -13 -42 -44z"/>
<path d="M583 2673 c-18 -6 -16 -50 2 -57 8 -3 21 2 29 10 24 24 1 58 -31 47z"/>
<path d="M4015 2211 c-16 -10 -125 -115 -242 -232 -178 -181 -212 -220 -218
-251 -13 -69 18 -133 79 -162 45 -21 83 -20 126 3 38 21 435 415 456 453 7 12
13 44 14 70 0 36 -6 54 -26 78 -52 61 -130 78 -189 41z m100 -91 c5 -8 -186
-158 -235 -185 -8 -4 30 38 85 94 95 97 132 119 150 91z"/>
<path d="M4765 2211 c-49 -31 -443 -433 -455 -464 -43 -116 72 -230 187 -186
32 12 447 420 469 461 8 15 14 47 14 72 0 102 -128 172 -215 117z m99 -90 c4
-5 -43 -46 -103 -90 -60 -44 -113 -85 -116 -91 -3 -5 -11 -10 -18 -10 -6 0 33
45 88 100 95 95 133 118 149 91z"/>
<path d="M852 1178 c-7 -7 -12 -18 -12 -25 0 -6 42 -56 93 -109 86 -88 96 -95
115 -85 12 7 22 17 22 24 0 12 -189 207 -201 207 -3 0 -10 -5 -17 -12z"/>
<path d="M1124 915 c-11 -27 4 -44 75 -90 208 -133 440 -215 690 -245 78 -9
97 -8 108 3 23 23 5 46 -40 51 -233 29 -338 54 -496 121 -58 25 -153 74 -210
110 -57 36 -107 65 -113 65 -5 0 -11 -7 -14 -15z"/>
<path d="M2915 890 c-8 -25 1 -40 25 -40 10 0 22 5 25 10 11 17 -6 50 -25 50
-10 0 -21 -9 -25 -20z"/>
<path d="M2733 793 c-58 -31 -83 -49 -83 -62 0 -33 29 -32 103 3 89 41 123 67
114 89 -10 26 -45 18 -134 -30z"/>
<path d="M2445 684 c-44 -12 -119 -27 -167 -34 -88 -13 -115 -27 -104 -55 7
-20 54 -19 173 4 131 26 207 52 211 73 6 32 -29 35 -113 12z"/>
</g>
</svg>
